<svg width="100" height="100" viewBox="0 0 100 100" fill="none" xmlns="http://www.w3.org/2000/svg">
<path d="M50 54.5455C65 54.5455 77.2727 42.2727 77.2727 27.2727C77.2727 12.2727 65 0 50 0C35 0 22.7273 12.2727 22.7273 27.2727C22.7273 42.2727 35 54.5455 50 54.5455ZM50 4.54545C62.5 4.54545 72.7273 14.7727 72.7273 27.2727C72.7273 39.7727 62.5 50 50 50C37.5 50 27.2727 39.7727 27.2727 27.2727C27.2727 14.7727 37.5 4.54545 50 4.54545Z" fill="#FFF700"/>
<path d="M70.4545 59.0909H29.5455C13.1818 59.0909 0 72.2727 0 88.6363V100H4.54545V88.6363C4.54545 74.7727 15.6818 63.6363 29.5455 63.6363H70.4545V59.0909Z" fill="#FFF700"/>
<path d="M100 81.8182H86.3636V68.1818H81.8182V81.8182H68.1818V86.3636H81.8182V100H86.3636V86.3636H100V81.8182Z" fill="#FFF700"/>
</svg>
