<svg width="100" height="100" viewBox="0 0 100 100" fill="none" xmlns="http://www.w3.org/2000/svg">
<path fill-rule="evenodd" clip-rule="evenodd" d="M97.8261 100H2.17391C0.971739 100 0 98.8946 0 97.5271C0 96.1596 0.971739 95.0542 2.17391 95.0542H97.8261C99.0283 95.0542 100 96.1596 100 97.5271C100 98.8946 99.0283 100 97.8261 100ZM32.6087 75.2708C33.8109 75.2708 34.7826 76.3762 34.7826 77.7437C34.7826 79.1112 33.8109 80.2166 32.6087 80.2166H15.2174C14.0152 80.2166 13.0435 79.1112 13.0435 77.7437C13.0435 76.3762 14.0152 75.2708 15.2174 75.2708H17.3913V43.1228H15.2174C14.0152 43.1228 13.0435 42.0174 13.0435 40.6499C13.0435 39.2848 14.0152 38.177 15.2174 38.177H32.6087C33.8109 38.177 34.7826 39.2848 34.7826 40.6499C34.7826 42.0174 33.8109 43.1228 32.6087 43.1228H30.4348V75.2708H32.6087ZM26.087 43.1228H21.7391V75.2708H26.087V43.1228ZM58.6957 75.2708C59.8978 75.2708 60.8696 76.3762 60.8696 77.7437C60.8696 79.1112 59.8978 80.2166 58.6957 80.2166H41.3043C40.1022 80.2166 39.1304 79.1112 39.1304 77.7437C39.1304 76.3762 40.1022 75.2708 41.3043 75.2708H43.4783V43.1228H41.3043C40.1022 43.1228 39.1304 42.0174 39.1304 40.6499C39.1304 39.2848 40.1022 38.177 41.3043 38.177H58.6957C59.8978 38.177 60.8696 39.2848 60.8696 40.6499C60.8696 42.0174 59.8978 43.1228 58.6957 43.1228H56.5217V75.2708H58.6957ZM52.1739 43.1228H47.8261V75.2708H52.1739V43.1228ZM93.4783 87.6354C93.4783 89.0029 92.5065 90.1083 91.3043 90.1083H8.69565C7.49348 90.1083 6.52174 89.0029 6.52174 87.6354C6.52174 86.2679 7.49348 85.1625 8.69565 85.1625H91.3043C92.5065 85.1625 93.4783 86.2679 93.4783 87.6354ZM84.7826 75.2708C85.9848 75.2708 86.9565 76.3762 86.9565 77.7437C86.9565 79.1112 85.9848 80.2166 84.7826 80.2166H67.3913C66.1891 80.2166 65.2174 79.1112 65.2174 77.7437C65.2174 76.3762 66.1891 75.2708 67.3913 75.2708H69.5652V43.1228H67.3913C66.1891 43.1228 65.2174 42.0174 65.2174 40.6499C65.2174 39.2848 66.1891 38.177 67.3913 38.177H84.7826C85.9848 38.177 86.9565 39.2848 86.9565 40.6499C86.9565 42.0174 85.9848 43.1228 84.7826 43.1228H82.6087V75.2708H84.7826ZM78.2609 43.1228H73.913V75.2708H78.2609V43.1228ZM4.34783 28.2853L50 0L95.6522 28.2853V33.2311H4.34783V28.2853ZM85.9587 28.2853L50 7.13685L13.9043 28.2853H85.9587Z" fill="#FFF700"/>
</svg>
