<svg width="1076" height="490" viewBox="0 0 1076 490" fill="none" xmlns="http://www.w3.org/2000/svg">
<g opacity="0.05">
<rect width="1076" height="13.4123" transform="matrix(1 0 0 -1 0 490)" fill="#68675C"/>
<rect y="0.45282" width="13.5346" height="479.488" fill="#68675C"/>
<path d="M94.7422 117.457C94.7422 115.8 96.0853 114.457 97.7422 114.457H135.73C137.386 114.457 138.73 115.8 138.73 117.457V476.588H94.7422V117.457Z" fill="#C4C4C4"/>
<path d="M216.554 197.93C216.554 196.274 217.897 194.93 219.554 194.93H254.157C255.814 194.93 257.157 196.274 257.157 197.93V476.588H216.554V197.93Z" fill="#C4C4C4"/>
<path d="M334.981 13.512C334.981 11.8551 336.324 10.512 337.981 10.512H375.969C377.625 10.512 378.969 11.8551 378.969 13.512V476.588H334.981V13.512Z" fill="#C4C4C4"/>
<path d="M456.792 107.398C456.792 105.741 458.136 104.398 459.792 104.398H497.78C499.437 104.398 500.78 105.741 500.78 107.398V476.588H456.792V107.398Z" fill="#C4C4C4"/>
<path d="M578.604 335.406C578.604 333.749 579.947 332.406 581.604 332.406H616.208C617.864 332.406 619.208 333.749 619.208 335.406V479.941H578.604V335.406Z" fill="#C4C4C4"/>
<path d="M697.031 73.8671C697.031 72.2103 698.375 70.8671 700.031 70.8671H738.019C739.676 70.8671 741.019 72.2103 741.019 73.8671V476.588H697.031V73.8671Z" fill="#C4C4C4"/>
<path d="M940.654 211.343C940.654 209.686 941.997 208.343 943.654 208.343H978.258C979.915 208.343 981.258 209.686 981.258 211.343V479.941H940.654V211.343Z" fill="#C4C4C4"/>
<path d="M818.843 191.224C818.843 189.567 820.186 188.224 821.843 188.224H859.83C861.487 188.224 862.83 189.567 862.83 191.224V476.588H818.843V191.224Z" fill="#C4C4C4"/>
</g>
</svg>
