<svg width="335" height="462" viewBox="0 0 335 462" fill="none" xmlns="http://www.w3.org/2000/svg">
<g id="card">
<rect id="Rectangle 1" width="335" height="462" rx="10" fill="#4B4A42"/>
<path id="Rectangle 2" d="M0 10C0 4.47715 4.47715 0 10 0H325C330.523 0 335 4.47715 335 10V136H0V10Z" fill="#68675C"/>
<g id="3287275_bitcoin_chart_cryptocurrency_dollar_rate_icon 1">
<g id="card-icon">
<g id="ratio_rate">
<g id="Group">
<g id="Group_2">
<g id="Group_3">
<g id="Group_4">
<path id="Vector" d="M193.25 108.503C180.826 108.503 170.719 98.295 170.719 85.75C170.719 80.485 172.544 75.35 175.859 71.2908C176.422 70.605 177.44 70.4977 178.125 71.073C178.811 71.645 178.91 72.6655 178.344 73.361C175.502 76.8385 173.938 81.2358 173.938 85.75C173.938 96.5043 182.599 105.253 193.25 105.253C203.901 105.253 212.562 96.5043 212.562 85.75C212.562 74.9958 203.901 66.2468 193.25 66.2468C189.574 66.2468 185.998 67.2965 182.905 69.2855C182.155 69.7665 181.16 69.539 180.684 68.7883C180.208 68.031 180.427 67.0267 181.176 66.5457C184.788 64.2252 188.963 63 193.25 63C205.674 63 215.781 73.2083 215.781 85.7533C215.781 98.2983 205.674 108.503 193.25 108.503Z" fill="#F9FAE0"/>
</g>
</g>
</g>
<g id="Group_5">
<g id="Group_6">
<g id="Group_7">
<path id="Vector_2" d="M141.75 63.0032C129.326 63.0032 119.219 52.795 119.219 40.25C119.219 34.985 121.044 29.85 124.356 25.7907C124.919 25.1017 125.936 24.9977 126.622 25.5697C127.307 26.1417 127.407 27.1622 126.841 27.8577C124.002 31.3352 122.438 35.7357 122.438 40.25C122.438 51.0042 131.099 59.7532 141.75 59.7532C152.401 59.7532 161.062 51.0042 161.062 40.25C161.062 29.4957 152.401 20.7467 141.75 20.7467C138.074 20.7467 134.498 21.7965 131.405 23.7855C130.652 24.2632 129.66 24.0422 129.184 23.285C128.708 22.5277 128.927 21.5235 129.676 21.0425C133.288 18.722 137.463 17.4967 141.75 17.4967C154.174 17.4967 164.281 27.705 164.281 40.25C164.281 52.795 154.174 63.0032 141.75 63.0032Z" fill="#F9FAE0"/>
</g>
</g>
</g>
<g id="Group_8">
<g id="Group_9">
<g id="Group_10">
<path id="Vector_3" d="M193.25 98.75C197.763 98.75 201.297 95.1815 201.297 90.625C201.297 86.9363 198.815 84.2485 193.923 82.6365L193.559 82.5162C191.724 81.9117 190.031 81.0993 190.031 79.25C190.031 77.3358 191.354 76 193.25 76C195.516 76 197.029 77.2285 197.042 77.2415C197.727 77.82 198.738 77.729 199.311 77.0465C199.884 76.3575 199.794 75.337 199.115 74.7585C199.018 74.6773 196.713 72.75 193.25 72.75C189.577 72.75 186.812 75.545 186.812 79.25C186.812 83.7155 191.138 85.1422 192.558 85.6037L192.922 85.724C196.391 86.868 198.078 88.4735 198.078 90.625C198.078 93.4038 196.002 95.5 193.25 95.5C190.263 95.5 188.554 93.511 188.1 92.9C187.566 92.1785 186.555 92.0388 185.847 92.5718C185.132 93.1113 184.987 94.1285 185.522 94.8467C186.204 95.7665 188.769 98.75 193.25 98.75Z" fill="#F9FAE0"/>
</g>
</g>
<g id="Group_11">
<g id="Group_12">
<path id="Vector_4" d="M193.25 102C194.138 102 194.859 101.272 194.859 100.375V98.75C194.859 97.853 194.138 97.125 193.25 97.125C192.362 97.125 191.641 97.853 191.641 98.75V100.375C191.641 101.272 192.362 102 193.25 102Z" fill="#F9FAE0"/>
</g>
</g>
<g id="Group_13">
<g id="Group_14">
<path id="Vector_5" d="M193.25 74.375C194.138 74.375 194.859 73.647 194.859 72.75V71.125C194.859 70.228 194.138 69.5 193.25 69.5C192.362 69.5 191.641 70.228 191.641 71.125V72.75C191.641 73.647 192.362 74.375 193.25 74.375Z" fill="#F9FAE0"/>
</g>
</g>
</g>
<g id="Group_15">
<g id="Group_16">
<g id="Group_17">
<g id="Group_18">
<path id="Vector_6" d="M143.359 53.2467H133.703C132.815 53.2467 132.094 52.5187 132.094 51.6217C132.094 50.7247 132.815 49.9967 133.703 49.9967H143.359C146.021 49.9967 148.188 47.8095 148.188 45.1217C148.188 42.434 146.021 40.2467 143.359 40.2467H136.922V36.9967H143.359C147.795 36.9967 151.406 40.6432 151.406 45.1217C151.406 49.6002 147.795 53.2467 143.359 53.2467Z" fill="#F9FAE0"/>
</g>
</g>
</g>
<g id="Group_19">
<g id="Group_20">
<g id="Group_21">
<path id="Vector_7" d="M141.75 40.2467H136.922V36.9967H141.75C143.524 36.9967 144.969 35.5407 144.969 33.7467C144.969 31.9527 143.524 30.4967 141.75 30.4967H133.703C132.815 30.4967 132.094 29.7687 132.094 28.8717C132.094 27.9747 132.815 27.2467 133.703 27.2467H141.75C145.3 27.2467 148.188 30.162 148.188 33.7467C148.188 37.3315 145.3 40.2467 141.75 40.2467Z" fill="#F9FAE0"/>
</g>
</g>
</g>
<g id="Group_22">
<g id="Group_23">
<g id="Group_24">
<path id="Vector_8" d="M140.141 56.4902C139.252 56.4902 138.531 55.7622 138.531 54.8652V51.6152H141.75V54.8652C141.75 55.7622 141.029 56.4902 140.141 56.4902Z" fill="#F9FAE0"/>
</g>
</g>
</g>
<g id="Group_25">
<g id="Group_26">
<g id="Group_27">
<path id="Vector_9" d="M138.531 28.8717V25.6217C138.531 24.7247 139.252 23.9967 140.141 23.9967C141.029 23.9967 141.75 24.7247 141.75 25.6217V28.8717H138.531Z" fill="#F9FAE0"/>
</g>
</g>
</g>
<g id="Group_28">
<g id="Group_29">
<g id="Group_30">
<path id="Vector_10" d="M138.531 27.2467H135.312V53.2467H138.531V27.2467Z" fill="#F9FAE0"/>
</g>
</g>
</g>
</g>
<g id="Group_31">
<g id="Group_32">
<g id="Group_33">
<g id="Group_34">
<g id="Group_35">
<path id="Vector_11" d="M215.089 38.6835C215.051 39.5772 214.304 40.2825 213.419 40.25C212.534 40.2142 211.835 39.4602 211.874 38.5632L212.334 25.8005C212.373 24.9067 211.674 24.2015 210.789 24.2372L198.139 24.702C197.248 24.7377 196.501 24.0325 196.469 23.1355C196.437 22.2417 197.135 21.4845 198.02 21.4487L214.12 20.8605C215.006 20.8247 215.704 21.53 215.672 22.4237L215.089 38.6835Z" fill="#F9FAE0"/>
</g>
</g>
</g>
</g>
</g>
</g>
<g id="Group_36">
<path id="Vector_12" d="M122.438 103.625C122.026 103.625 121.614 103.466 121.298 103.15C120.67 102.517 120.67 101.486 121.298 100.853L169.579 52.1027C170.043 51.638 170.732 51.5015 171.334 51.7517C171.935 51.9987 172.328 52.5935 172.328 53.25V62.3305L212.978 21.3415C213.605 20.7077 214.626 20.7077 215.257 21.3415C215.884 21.9752 215.884 23.0055 215.257 23.6392L171.858 67.4005C171.398 67.8652 170.706 68.0017 170.104 67.7515C169.502 67.5012 169.109 66.9065 169.109 66.25V57.1727L123.577 103.15C123.262 103.466 122.85 103.625 122.438 103.625Z" fill="#F9FAE0"/>
</g>
</g>
</g>
</g>
<rect id="Rectangle 3" width="318" height="4" transform="matrix(1 0 0 -1 9 321)" fill="#68675C"/>
<rect id="Rectangle 4" x="9" y="175" width="4" height="143" fill="#68675C"/>
<path id="Rectangle 5" d="M37 212C37 210.343 38.3431 209 40 209H47C48.6569 209 50 210.343 50 212V317H37V212Z" fill="#C4C4C4"/>
<path id="Rectangle 6" d="M73 236C73 234.343 74.3431 233 76 233H82C83.6569 233 85 234.343 85 236V317H73V236Z" fill="#C4C4C4"/>
<path id="Rectangle 7" d="M108 181C108 179.343 109.343 178 111 178H118C119.657 178 121 179.343 121 181V317H108V181Z" fill="#C4C4C4"/>
<path id="Rectangle 8" d="M144 209C144 207.343 145.343 206 147 206H154C155.657 206 157 207.343 157 209V317H144V209Z" fill="#C4C4C4"/>
<path id="Rectangle 9" d="M180 277C180 275.343 181.343 274 183 274H189C190.657 274 192 275.343 192 277V318H180V277Z" fill="#C4C4C4"/>
<path id="Rectangle 10" d="M215 199C215 197.343 216.343 196 218 196H225C226.657 196 228 197.343 228 199V317H215V199Z" fill="#C4C4C4"/>
<path id="Rectangle 12" d="M287 240C287 238.343 288.343 237 290 237H296C297.657 237 299 238.343 299 240V318H287V240Z" fill="#C4C4C4"/>
<path id="Rectangle 13" d="M251 234C251 232.343 252.343 231 254 231H261C262.657 231 264 232.343 264 234V317H251V234Z" fill="#C4C4C4"/>
<rect id="Rectangle 14" x="10" y="341" width="147" height="17" rx="8" fill="#C4C4C4"/>
<rect id="Rectangle 15" opacity="0.75" x="10" y="372" width="191" height="16" rx="8" fill="#C4C4C4"/>
<rect id="Rectangle 16" opacity="0.6" x="13" y="428" width="65" height="15" rx="7.5" fill="#C4C4C4"/>
<rect id="Rectangle 17" opacity="0.95" x="262" y="428" width="65" height="15" rx="7.5" fill="#C4C4C4"/>
</g>
</svg>
