<svg width="205" height="41" viewBox="0 0 205 41" fill="none" xmlns="http://www.w3.org/2000/svg">
<path d="M34.2022 32.8403C33.7013 32.8252 33.2081 32.7814 32.7242 32.7105C32.2591 32.642 31.9361 32.2094 32.0047 31.7442C32.0733 31.279 32.5025 30.956 32.9711 31.0247C33.3905 31.085 33.819 31.1235 34.2535 31.1366C40.3595 31.3204 45.477 26.5019 45.6608 20.3958C45.8446 14.2898 41.0261 9.17225 34.92 8.98849C34.4754 8.9751 34.0367 8.98919 33.6042 9.02562C33.1237 9.06744 32.7232 8.71945 32.6811 8.25094C32.6389 7.78244 32.9889 7.37007 33.4557 7.32785C33.955 7.28489 34.4602 7.26941 34.9713 7.28479C42.0178 7.49686 47.5766 13.4006 47.3645 20.4471C47.1524 27.4936 41.2487 33.0524 34.2022 32.8403Z" fill="#FFF700"/>
<path d="M34.074 37.0996C32.2664 37.0452 30.4962 36.7088 28.8092 36.1039C28.3655 35.9439 28.1364 35.4561 28.2946 35.0141C28.453 34.5687 28.9424 34.3412 29.3844 34.4995C30.9026 35.0465 32.4982 35.3469 34.1253 35.3959C42.579 35.6503 49.6656 28.9795 49.92 20.5241C50.1745 12.0686 43.502 4.98371 35.0482 4.72929C33.3973 4.6796 31.7641 4.89135 30.1966 5.35916C29.7441 5.49219 29.2692 5.23746 29.1361 4.78668C29.0014 4.33415 29.2578 3.86098 29.7086 3.7262C31.4517 3.20569 33.2663 2.97041 35.0995 3.02559C44.4937 3.30831 51.9065 11.1811 51.6237 20.5753C51.341 29.9695 43.4682 37.3823 34.074 37.0996Z" fill="#FFF700"/>
<path d="M17.037 36.5867C7.6428 36.304 0.230015 28.4312 0.512739 19.037C0.795464 9.6428 8.66828 2.23001 18.0625 2.51274C27.4567 2.79546 34.8695 10.6683 34.5867 20.0625C34.304 29.4567 26.4312 36.8695 17.037 36.5867ZM18.0112 4.21644C9.55745 3.96202 2.47091 10.6328 2.21644 19.0883C1.96197 27.5437 8.63452 34.6286 17.0883 34.883C25.542 35.1375 32.6286 28.4667 32.883 20.0112C33.1375 11.5557 26.465 4.47086 18.0112 4.21644Z" fill="#FFF700"/>
<path d="M27.3963 27.692C27.0892 27.9812 26.6093 28.0042 26.2748 27.7316C25.9086 27.434 25.8531 26.8986 26.1505 26.5341C29.632 22.2496 29.4011 15.9844 25.6104 11.9585C22.9202 9.10142 19.0175 7.89261 15.176 8.72852C14.7143 8.82718 14.2626 8.53733 14.1622 8.0773C14.0619 7.61557 14.3517 7.16388 14.8135 7.06353C19.1802 6.11382 23.7925 7.5418 26.8511 10.7903C31.2235 15.4339 31.4935 22.6672 27.4721 27.609C27.4491 27.6373 27.4227 27.6655 27.3963 27.692Z" fill="#FFF700"/>
<path d="M20.6776 31.8313C20.5671 31.9337 20.4318 32.008 20.2756 32.0426C15.9089 32.9923 11.2966 31.5626 8.23795 28.3141C3.90694 23.7144 3.60663 16.5245 7.54077 11.5903C7.83316 11.2239 8.37048 11.1617 8.73854 11.4541C9.10655 11.7483 9.16711 12.2855 8.87467 12.6536C5.46518 16.9266 5.72611 23.1586 9.47877 27.1442C12.1689 30.003 16.0716 31.2101 19.9131 30.3742C20.3748 30.2755 20.8265 30.5671 20.9269 31.0254C20.9927 31.3326 20.8882 31.6313 20.6776 31.8313Z" fill="#FFF700"/>
<path d="M18.1965 26.3902L13.0854 26.2364C12.6152 26.2222 12.245 25.8291 12.2592 25.3589C12.2733 24.8887 12.6664 24.5185 13.1367 24.5327L18.2478 24.6865C19.6567 24.7289 20.8378 23.6168 20.8802 22.2079C20.9226 20.7989 19.8105 19.6178 18.4016 19.5754L14.9942 19.4729L15.0455 17.7692L18.4529 17.8717C20.8006 17.9424 22.6546 19.9115 22.5839 22.2592C22.5133 24.6069 20.5442 26.4609 18.1965 26.3902Z" fill="#FAFF00"/>
<path d="M17.5497 19.5498L14.9942 19.4729L15.0455 17.7692L17.601 17.8461C18.5398 17.8744 19.3277 17.1341 19.356 16.1937C19.3843 15.2532 18.6423 14.467 17.7036 14.4387L13.4443 14.3105C12.9741 14.2964 12.6039 13.9032 12.6181 13.433C12.6322 12.9628 13.0254 12.5927 13.4956 12.6068L17.7548 12.735C19.634 12.7916 21.1162 14.3658 21.0597 16.2449C21.0031 18.1241 19.4289 19.6064 17.5497 19.5498Z" fill="#FAFF00"/>
<path d="M16.4416 28.0392C15.9714 28.0251 15.6013 27.632 15.6154 27.1617L15.6667 25.458L17.3704 25.5093L17.3191 27.213C17.305 27.6832 16.9118 28.0534 16.4416 28.0392Z" fill="#FAFF00"/>
<path d="M16.0255 13.5355L16.0768 11.8318C16.0909 11.3616 16.484 10.9915 16.9543 11.0056C17.4245 11.0198 17.7946 11.4129 17.7805 11.8831L17.7292 13.5868L16.0255 13.5355Z" fill="#FAFF00"/>
<path d="M15.9999 14.3874L14.2962 14.3361L13.9885 24.5583L15.6922 24.6096L15.9999 14.3874Z" fill="#FAFF00"/>
<path d="M71.948 28.252C70.044 28.252 68.3733 27.8413 66.936 27.02C65.5173 26.1987 64.4253 25.0227 63.66 23.492C62.8947 21.9613 62.512 20.1693 62.512 18.116C62.512 16.0627 62.8947 14.28 63.66 12.768C64.4253 11.2373 65.5173 10.0613 66.936 9.24C68.3733 8.41867 70.044 8.008 71.948 8.008C73.18 8.008 74.3373 8.19467 75.42 8.568C76.5027 8.92267 77.464 9.44533 78.304 10.136C78.5467 10.3227 78.7147 10.5187 78.808 10.724C78.9013 10.9293 78.948 11.1813 78.948 11.48C78.948 11.8907 78.836 12.236 78.612 12.516C78.388 12.796 78.1173 12.936 77.8 12.936C77.4267 12.936 77.044 12.8053 76.652 12.544C75.8493 11.9467 75.1027 11.536 74.412 11.312C73.7213 11.0693 72.956 10.948 72.116 10.948C70.1747 10.948 68.7 11.5547 67.692 12.768C66.7027 13.9813 66.208 15.764 66.208 18.116C66.208 20.4867 66.7027 22.2787 67.692 23.492C68.7 24.7053 70.1747 25.312 72.116 25.312C72.9187 25.312 73.656 25.1907 74.328 24.948C75.0187 24.7053 75.7933 24.2947 76.652 23.716C76.8387 23.604 77.0253 23.5107 77.212 23.436C77.3987 23.3613 77.5947 23.324 77.8 23.324C78.1173 23.324 78.388 23.464 78.612 23.744C78.836 24.024 78.948 24.3693 78.948 24.78C78.948 25.06 78.9013 25.312 78.808 25.536C78.7147 25.7413 78.5467 25.9373 78.304 26.124C77.464 26.8147 76.5027 27.3467 75.42 27.72C74.3373 28.0747 73.18 28.252 71.948 28.252ZM90.8524 15.036C91.0017 14.7 91.1977 14.4573 91.4404 14.308C91.7017 14.14 91.9817 14.056 92.2804 14.056C92.7097 14.056 93.0924 14.2053 93.4284 14.504C93.783 14.784 93.9604 15.1387 93.9604 15.568C93.9604 15.7733 93.9044 15.988 93.7924 16.212L86.1484 32.228C85.831 32.8627 85.3364 33.18 84.6644 33.18C84.235 33.18 83.8524 33.04 83.5164 32.76C83.199 32.4987 83.0404 32.1627 83.0404 31.752C83.0404 31.5467 83.0964 31.3133 83.2084 31.052L85.1124 27.048L79.9044 16.212C79.811 16.0253 79.7644 15.8107 79.7644 15.568C79.7644 15.1387 79.9417 14.7747 80.2964 14.476C80.6697 14.1773 81.0897 14.028 81.5564 14.028C81.8737 14.028 82.163 14.112 82.4244 14.28C82.6857 14.4293 82.891 14.672 83.0404 15.008L86.9604 23.66L90.8524 15.036ZM104.375 13.972C105.57 13.972 106.625 14.2613 107.539 14.84C108.454 15.4187 109.163 16.24 109.667 17.304C110.19 18.368 110.451 19.6093 110.451 21.028C110.451 22.4467 110.19 23.7067 109.667 24.808C109.163 25.8907 108.445 26.7307 107.511 27.328C106.597 27.9253 105.551 28.224 104.375 28.224C103.386 28.224 102.499 28.0093 101.715 27.58C100.95 27.1507 100.362 26.5533 99.9515 25.788V26.488C99.9515 26.992 99.7928 27.3933 99.4755 27.692C99.1582 27.9907 98.7382 28.14 98.2155 28.14C97.6928 28.14 97.2728 27.9907 96.9555 27.692C96.6568 27.3933 96.5075 26.992 96.5075 26.488V9.744C96.5075 9.25867 96.6662 8.86667 96.9835 8.568C97.3195 8.26933 97.7488 8.12 98.2715 8.12C98.7942 8.12 99.2142 8.26 99.5315 8.54C99.8488 8.82 100.007 9.20267 100.007 9.688V16.296C100.418 15.5493 101.006 14.98 101.771 14.588C102.537 14.1773 103.405 13.972 104.375 13.972ZM103.451 25.508C104.553 25.508 105.411 25.116 106.027 24.332C106.643 23.548 106.951 22.4467 106.951 21.028C106.951 19.628 106.643 18.5547 106.027 17.808C105.43 17.0613 104.571 16.688 103.451 16.688C102.331 16.688 101.463 17.0707 100.847 17.836C100.25 18.5827 99.9515 19.6653 99.9515 21.084C99.9515 22.5027 100.25 23.5947 100.847 24.36C101.463 25.1253 102.331 25.508 103.451 25.508ZM124.16 24.248C124.477 24.248 124.729 24.3693 124.916 24.612C125.121 24.8547 125.224 25.1813 125.224 25.592C125.224 26.1707 124.879 26.656 124.188 27.048C123.553 27.4027 122.835 27.692 122.032 27.916C121.229 28.1213 120.464 28.224 119.736 28.224C117.533 28.224 115.788 27.5893 114.5 26.32C113.212 25.0507 112.568 23.3147 112.568 21.112C112.568 19.712 112.848 18.4707 113.408 17.388C113.968 16.3053 114.752 15.4653 115.76 14.868C116.787 14.2707 117.944 13.972 119.232 13.972C120.464 13.972 121.537 14.2427 122.452 14.784C123.367 15.3253 124.076 16.0907 124.58 17.08C125.084 18.0693 125.336 19.236 125.336 20.58C125.336 21.3827 124.981 21.784 124.272 21.784H116.012C116.124 23.072 116.488 24.024 117.104 24.64C117.72 25.2373 118.616 25.536 119.792 25.536C120.389 25.536 120.912 25.4613 121.36 25.312C121.827 25.1627 122.349 24.9573 122.928 24.696C123.488 24.3973 123.899 24.248 124.16 24.248ZM119.316 16.436C118.364 16.436 117.599 16.7347 117.02 17.332C116.46 17.9293 116.124 18.788 116.012 19.908H122.34C122.303 18.7693 122.023 17.9107 121.5 17.332C120.977 16.7347 120.249 16.436 119.316 16.436ZM135.843 14.028C136.328 13.9907 136.711 14.0933 136.991 14.336C137.271 14.5787 137.411 14.9427 137.411 15.428C137.411 15.932 137.29 16.3053 137.047 16.548C136.804 16.7907 136.366 16.9493 135.731 17.024L134.891 17.108C133.79 17.22 132.978 17.5933 132.455 18.228C131.951 18.8627 131.699 19.656 131.699 20.608V26.488C131.699 27.0293 131.531 27.4493 131.195 27.748C130.859 28.028 130.439 28.168 129.935 28.168C129.431 28.168 129.011 28.028 128.675 27.748C128.358 27.4493 128.199 27.0293 128.199 26.488V15.652C128.199 15.1293 128.358 14.728 128.675 14.448C129.011 14.168 129.422 14.028 129.907 14.028C130.392 14.028 130.784 14.168 131.083 14.448C131.382 14.7093 131.531 15.092 131.531 15.596V16.716C131.886 15.8947 132.408 15.26 133.099 14.812C133.808 14.364 134.592 14.112 135.451 14.056L135.843 14.028ZM151.378 17.808C152.516 18.1253 153.394 18.704 154.01 19.544C154.644 20.384 154.962 21.4107 154.962 22.624C154.962 24.304 154.355 25.62 153.142 26.572C151.947 27.524 150.295 28 148.186 28H140.962C140.42 28 139.991 27.8507 139.674 27.552C139.375 27.2533 139.226 26.8333 139.226 26.292V9.968C139.226 9.42667 139.375 9.00667 139.674 8.708C139.991 8.40933 140.42 8.26 140.962 8.26H147.906C149.959 8.26 151.564 8.71733 152.722 9.632C153.898 10.528 154.486 11.788 154.486 13.412C154.486 14.4573 154.206 15.3627 153.646 16.128C153.104 16.8933 152.348 17.4533 151.378 17.808ZM142.754 16.576H147.318C149.8 16.576 151.042 15.652 151.042 13.804C151.042 12.8707 150.734 12.18 150.118 11.732C149.502 11.284 148.568 11.06 147.318 11.06H142.754V16.576ZM147.794 25.2C149.1 25.2 150.052 24.9667 150.65 24.5C151.247 24.0333 151.546 23.3053 151.546 22.316C151.546 21.3267 151.238 20.5893 150.622 20.104C150.024 19.6187 149.082 19.376 147.794 19.376H142.754V25.2H147.794ZM167.579 15.036C167.728 14.7 167.924 14.4573 168.167 14.308C168.428 14.14 168.708 14.056 169.007 14.056C169.436 14.056 169.819 14.2053 170.155 14.504C170.51 14.784 170.687 15.1387 170.687 15.568C170.687 15.7733 170.631 15.988 170.519 16.212L162.875 32.228C162.558 32.8627 162.063 33.18 161.391 33.18C160.962 33.18 160.579 33.04 160.243 32.76C159.926 32.4987 159.767 32.1627 159.767 31.752C159.767 31.5467 159.823 31.3133 159.935 31.052L161.839 27.048L156.631 16.212C156.538 16.0253 156.491 15.8107 156.491 15.568C156.491 15.1387 156.668 14.7747 157.023 14.476C157.396 14.1773 157.816 14.028 158.283 14.028C158.6 14.028 158.89 14.112 159.151 14.28C159.412 14.4293 159.618 14.672 159.767 15.008L163.687 23.66L167.579 15.036ZM180.237 25.564C181.17 25.62 181.637 26.04 181.637 26.824C181.637 27.272 181.45 27.6173 181.077 27.86C180.722 28.084 180.209 28.1773 179.537 28.14L178.781 28.084C175.645 27.86 174.077 26.18 174.077 23.044V16.94H172.677C172.173 16.94 171.781 16.828 171.501 16.604C171.239 16.38 171.109 16.0533 171.109 15.624C171.109 15.1947 171.239 14.868 171.501 14.644C171.781 14.42 172.173 14.308 172.677 14.308H174.077V11.732C174.077 11.228 174.235 10.8267 174.553 10.528C174.87 10.2293 175.299 10.08 175.841 10.08C176.363 10.08 176.783 10.2293 177.101 10.528C177.418 10.8267 177.577 11.228 177.577 11.732V14.308H179.957C180.461 14.308 180.843 14.42 181.105 14.644C181.385 14.868 181.525 15.1947 181.525 15.624C181.525 16.0533 181.385 16.38 181.105 16.604C180.843 16.828 180.461 16.94 179.957 16.94H177.577V23.296C177.577 24.6773 178.211 25.4147 179.481 25.508L180.237 25.564ZM194.297 24.248C194.614 24.248 194.866 24.3693 195.053 24.612C195.258 24.8547 195.361 25.1813 195.361 25.592C195.361 26.1707 195.015 26.656 194.325 27.048C193.69 27.4027 192.971 27.692 192.169 27.916C191.366 28.1213 190.601 28.224 189.873 28.224C187.67 28.224 185.925 27.5893 184.637 26.32C183.349 25.0507 182.705 23.3147 182.705 21.112C182.705 19.712 182.985 18.4707 183.545 17.388C184.105 16.3053 184.889 15.4653 185.897 14.868C186.923 14.2707 188.081 13.972 189.369 13.972C190.601 13.972 191.674 14.2427 192.589 14.784C193.503 15.3253 194.213 16.0907 194.717 17.08C195.221 18.0693 195.473 19.236 195.473 20.58C195.473 21.3827 195.118 21.784 194.409 21.784H186.149C186.261 23.072 186.625 24.024 187.241 24.64C187.857 25.2373 188.753 25.536 189.929 25.536C190.526 25.536 191.049 25.4613 191.497 25.312C191.963 25.1627 192.486 24.9573 193.065 24.696C193.625 24.3973 194.035 24.248 194.297 24.248ZM189.453 16.436C188.501 16.436 187.735 16.7347 187.157 17.332C186.597 17.9293 186.261 18.788 186.149 19.908H192.477C192.439 18.7693 192.159 17.9107 191.637 17.332C191.114 16.7347 190.386 16.436 189.453 16.436Z" fill="#FFF700"/>
</svg>
