<svg width="100" height="106" viewBox="0 0 100 106" fill="none" xmlns="http://www.w3.org/2000/svg">
<path d="M89.9781 56H79L86.5024 69H100C99.8751 68.4958 99.6766 68.0152 99.4117 67.5754L93.7385 58.1771C93.3357 57.5099 92.7799 56.9606 92.1226 56.58C91.4654 56.1995 90.7278 56 89.9781 56V56Z" fill="#FFF700"/>
<path d="M74.1063 56H66.0526L60.3414 69.4H72.729C73.2759 69.4 73.8003 69.6368 74.187 70.0582C74.5736 70.4796 74.7909 71.0511 74.7909 71.647C74.7909 72.243 74.5736 72.8145 74.187 73.2359C73.8003 73.6573 73.2759 73.894 72.729 73.894H60L69.6927 104.837C69.7992 105.176 70.0003 105.471 70.268 105.679C70.5357 105.888 70.8564 106 71.1854 106C71.5145 106 71.8352 105.888 72.1029 105.679C72.3706 105.471 72.5717 105.176 72.6782 104.837L83 71.9147L74.1063 56Z" fill="#FFF700"/>
<path d="M79 100L98.956 74.0722C98.9721 74.0494 98.9839 74.0234 99 74H86.9824L79 100Z" fill="#FFF700"/>
<path d="M47.6093 58.1771L41.6209 67.5754C41.3413 68.0152 41.1319 68.4958 41 69H54.9612L61 56H51.578C50.7868 56 50.0083 56.1996 49.3146 56.5801C48.6209 56.9606 48.0344 57.5099 47.6093 58.1771Z" fill="#FFF700"/>
<path d="M43 74C43.017 74.023 43.0288 74.049 43.0461 74.0723L64 100L55.5832 74H43Z" fill="#FFF700"/>
<path d="M59.9567 13.3029H75.1017C77.0732 13.3054 78.9632 14.1413 80.3572 15.6272C81.7512 17.1131 82.5354 19.1276 82.5377 21.229V31.8255L79.911 29.3344C79.3251 28.7789 78.5561 28.4943 77.7732 28.5431C76.9904 28.5919 76.2578 28.9701 75.7366 29.5946C75.2154 30.2192 74.9484 31.0388 74.9941 31.8732C75.0399 32.7076 75.3948 33.4884 75.9808 34.0439L83.5293 41.2032C84.0707 41.7165 84.7699 42 85.4944 42C86.219 42 86.9182 41.7165 87.4596 41.2032L95.0083 34.0439C95.2984 33.7689 95.5349 33.4356 95.7042 33.0632C95.8735 32.6907 95.9723 32.2864 95.995 31.8732C96.0176 31.4601 95.9637 31.0462 95.8364 30.6553C95.709 30.2643 95.5106 29.904 95.2525 29.5947C94.9945 29.2855 94.6818 29.0335 94.3324 28.853C93.983 28.6726 93.6036 28.5673 93.216 28.5431C92.8284 28.519 92.4401 28.5764 92.0733 28.7122C91.7065 28.8479 91.3684 29.0594 91.0783 29.3344L88.4512 31.8255V21.229C88.447 17.4566 87.0391 13.84 84.5365 11.1725C82.0338 8.50504 78.6406 7.00448 75.1013 7H59.9567C59.5684 7 59.184 7.08151 58.8252 7.23989C58.4665 7.39826 58.1406 7.63039 57.866 7.92303C57.5914 8.21567 57.3737 8.56308 57.2251 8.94543C57.0765 9.32778 57 9.73757 57 10.1514C57 10.5653 57.0765 10.9751 57.2251 11.3574C57.3737 11.7398 57.5914 12.0872 57.866 12.3798C58.1406 12.6725 58.4665 12.9046 58.8252 13.063C59.184 13.2213 59.5684 13.3029 59.9567 13.3029V13.3029Z" fill="#FFF700"/>
<path d="M26 57C31.1423 57 36.1691 55.3285 40.4448 52.1969C44.7205 49.0653 48.053 44.6142 50.0209 39.4065C51.9887 34.1988 52.5036 28.4684 51.5004 22.9399C50.4972 17.4115 48.0209 12.3333 44.3848 8.34747C40.7486 4.36167 36.1158 1.64731 31.0723 0.547632C26.0288 -0.552046 20.8011 0.0123486 16.0502 2.16945C11.2993 4.32654 7.2387 7.97946 4.38179 12.6663C1.52487 17.3531 0 22.8632 0 28.5C0 36.0587 2.73928 43.3078 7.61522 48.6525C12.4912 53.9973 19.1044 57 26 57V57ZM27.9887 31.3643H23.9371C22.0524 31.3694 20.2403 30.5677 18.887 29.1298C17.5337 27.6918 16.7461 25.7315 16.692 23.6664C16.6379 21.6013 17.3217 19.5947 18.5975 18.0741C19.8734 16.5535 21.6405 15.6391 23.5224 15.5257V11.8407C23.5151 11.5095 23.5682 11.18 23.6788 10.8716C23.7893 10.5632 23.9551 10.2822 24.1662 10.0451C24.3773 9.80796 24.6295 9.61953 24.9081 9.49087C25.1866 9.36222 25.4859 9.29594 25.7881 9.29594C26.0904 9.29594 26.3896 9.36222 26.6682 9.49087C26.9467 9.61953 27.199 9.80796 27.4101 10.0451C27.6212 10.2822 27.7869 10.5632 27.8975 10.8716C28.008 11.18 28.0612 11.5095 28.0538 11.8407V15.4799H33.0427C33.6341 15.4957 34.1963 15.7643 34.6095 16.2283C35.0226 16.6924 35.2539 17.3151 35.2539 17.9635C35.2539 18.6119 35.0226 19.2346 34.6095 19.6986C34.1963 20.1627 33.6341 20.4312 33.0427 20.447H23.9371C23.2173 20.447 22.5269 20.7605 22.0179 21.3184C21.5089 21.8763 21.223 22.6331 21.223 23.4221C21.223 24.2112 21.5089 24.9679 22.0179 25.5258C22.5269 26.0837 23.2173 26.3972 23.9371 26.3972H27.9882C29.8109 26.3979 31.5593 27.1896 32.851 28.5993C34.1427 30.009 34.8727 31.9219 34.8814 33.9199C34.8901 35.9179 34.1767 37.8384 32.8973 39.2615C31.6179 40.6846 29.8765 41.4945 28.0538 41.5142V45.1578C28.0612 45.4891 28.008 45.8186 27.8975 46.1269C27.7869 46.4353 27.6212 46.7163 27.4101 46.9535C27.199 47.1906 26.9467 47.379 26.6682 47.5077C26.3896 47.6363 26.0904 47.7026 25.7881 47.7026C25.4859 47.7026 25.1866 47.6363 24.9081 47.5077C24.6295 47.379 24.3773 47.1906 24.1662 46.9535C23.9551 46.7163 23.7893 46.4353 23.6788 46.1269C23.5682 45.8186 23.5151 45.4891 23.5224 45.1578V41.5214H18.9561C18.3648 41.5056 17.8025 41.237 17.3893 40.773C16.9762 40.3089 16.7449 39.6862 16.7449 39.0378C16.7449 38.3894 16.9762 37.7667 17.3893 37.3027C17.8025 36.8386 18.3648 36.5701 18.9561 36.5543H27.988C28.6158 36.5543 29.2179 36.2809 29.6618 35.7943C30.1057 35.3077 30.3551 34.6477 30.3551 33.9596C30.3551 33.2714 30.1057 32.6114 29.6618 32.1248C29.2179 31.6382 28.6158 31.3649 27.988 31.3649L27.9887 31.3643Z" fill="#FFF700"/>
<path d="M40.0427 99.5122H24.8973C22.9257 99.5097 21.0356 98.6493 19.6415 97.1198C18.2474 95.5904 17.4632 93.5167 17.4608 91.3537V80.4742L20.0877 83.0393C20.3778 83.3225 20.7159 83.5401 21.0827 83.6799C21.4495 83.8196 21.8378 83.8787 22.2254 83.8539C22.6131 83.829 22.9924 83.7206 23.3419 83.5348C23.6913 83.3491 24.004 83.0897 24.2621 82.7714C24.5201 82.4531 24.7185 82.0821 24.8459 81.6797C24.9733 81.2773 25.0272 80.8513 25.0045 80.426C24.9818 80.0008 24.883 79.5846 24.7137 79.2012C24.5444 78.8178 24.308 78.4748 24.0178 78.1917L16.4692 70.8204C15.9276 70.2916 15.2278 69.9997 14.5029 70C13.7779 70.0003 13.0783 70.293 12.5372 70.8223L4.99005 78.1928C4.7001 78.4762 4.46386 78.8194 4.29483 79.203C4.1258 79.5866 4.02729 80.0029 4.00491 80.4282C3.98254 80.8535 4.03675 81.2795 4.16444 81.6819C4.29213 82.0842 4.4908 82.455 4.74911 82.7732C5.00743 83.0913 5.32033 83.3504 5.66994 83.5359C6.01955 83.7213 6.39903 83.8294 6.78672 83.8539C7.1744 83.8785 7.5627 83.819 7.92943 83.6789C8.29617 83.5388 8.63417 83.3209 8.92412 83.0375L11.5477 80.4752V91.3537C11.552 95.2367 12.9599 98.9594 15.4626 101.705C17.9653 104.451 21.3584 105.995 24.8978 106H40.0432C40.8274 106 41.5795 105.658 42.134 105.05C42.6885 104.442 43 103.616 43 102.756C43 101.896 42.6885 101.071 42.134 100.462C41.5795 99.854 40.8274 99.5122 40.0432 99.5122H40.0427Z" fill="#FFF700"/>
</svg>
